# xmcd
#
# Track frame offsets:
#	150
#	17867
#	35435
#	51177
#	67340
#	85555
#	105782
#	123170
#	141162
#	160342
#	175645
#	188472
#
# Disc length: 2704 seconds
#
# Revision: 4
# Processed by: cddbd v1.5.2PL0 Copyright (c) Steve Scherf et al.
# Submitted via: audiograbber 1.83.01
#
DISCID=910a8e0c
DTITLE=Reba McEntire - If You See Him
DYEAR=1998
DGENRE=Country
TTITLE0=If You See Him, If You See Her
TTITLE1=One Honest Heart
TTITLE2=I Wouldn't Know
TTITLE3=I'll Give You Something To Miss
TTITLE4=Invisible
TTITLE5=Up And Flying
TTITLE6=Forever Love
TTITLE7=Face To Face
TTITLE8=Heart Hush
TTITLE9=Lonely Again
TTITLE10=Wrong Night
TTITLE11=All This Time
EXTD=
EXTT0=
EXTT1=
EXTT2=
EXTT3=
EXTT4=
EXTT5=
EXTT6=
EXTT7=
EXTT8=
EXTT9=
EXTT10=
EXTT11=
PLAYORDER=
